<svg width="27" height="18" viewBox="0 0 27 18" fill="none" xmlns="http://www.w3.org/2000/svg">
<path d="M20.4921 17.994C19.3081 17.994 18.2681 17.778 17.3721 17.346C16.4921 16.914 15.7961 16.298 15.2841 15.498C14.7881 14.698 14.5321 13.746 14.5161 12.642H17.2041C17.2201 13.49 17.5081 14.218 18.0681 14.826C18.6441 15.418 19.4441 15.714 20.4681 15.714C21.4121 15.714 22.1481 15.498 22.6761 15.066C23.2041 14.618 23.4681 14.042 23.4681 13.338C23.4681 12.746 23.3081 12.258 22.9881 11.874C22.6841 11.474 22.2041 11.122 21.5481 10.818C20.8921 10.498 20.0441 10.17 19.0041 9.83404C17.6121 9.38604 16.5881 8.77004 15.9321 7.98604C15.2761 7.18604 14.9481 6.21004 14.9481 5.05804C14.9481 3.73004 15.4281 2.65804 16.3881 1.84204C17.3481 1.02604 18.6681 0.618042 20.3481 0.618042C21.9801 0.618042 23.2921 1.04204 24.2841 1.89004C25.2761 2.72204 25.7881 3.88204 25.8201 5.37004H23.1081C23.1081 4.97004 22.9961 4.58604 22.7721 4.21804C22.5481 3.83404 22.2281 3.52204 21.8121 3.28204C21.3961 3.02604 20.8841 2.89804 20.2761 2.89804C19.5241 2.88204 18.8921 3.06604 18.3801 3.45004C17.8681 3.81804 17.6121 4.32204 17.6121 4.96204C17.6121 5.74604 17.9241 6.36204 18.5481 6.81004C19.1721 7.24204 20.1881 7.69004 21.5961 8.15404C22.4761 8.44204 23.2521 8.79404 23.9241 9.21004C24.6121 9.61004 25.1481 10.13 25.5321 10.77C25.9321 11.394 26.1321 12.194 26.1321 13.17C26.1321 14.066 25.9081 14.882 25.4601 15.618C25.0121 16.338 24.3641 16.914 23.5161 17.346C22.6841 17.778 21.6761 17.994 20.4921 17.994Z" fill="#FFCC19"/>
<path d="M6.14944 17.9941C4.42144 17.9941 3.09344 17.5141 2.16544 16.5541C1.23744 15.5781 0.773438 14.2421 0.773438 12.5461H3.34144C3.35744 13.4261 3.58144 14.1701 4.01344 14.7781C4.44544 15.3861 5.14944 15.6901 6.12544 15.6901C7.06944 15.6901 7.74144 15.3941 8.14144 14.8021C8.55744 14.2101 8.76544 13.4741 8.76544 12.5941V0.906067H11.3094V12.5941C11.3094 14.3221 10.8534 15.6581 9.94144 16.6021C9.02944 17.5301 7.76544 17.9941 6.14944 17.9941Z" fill="#FFCC19"/>
</svg>
